<svg width="24" height="18" viewBox="0 0 24 18" fill="none" xmlns="http://www.w3.org/2000/svg">
<path d="M23.1875 2.13281C22.3435 2.49954 21.4505 2.74115 20.5367 2.85C21.497 2.28768 22.2192 1.39433 22.5678 0.3375C21.6599 0.868402 20.6682 1.24091 19.6353 1.43906C19.2004 0.983217 18.6772 0.62058 18.0978 0.373193C17.5183 0.125806 16.8946 -0.00116419 16.2645 3.08615e-07C13.7136 3.08615e-07 11.6492 2.03437 11.6492 4.54219C11.6474 4.89101 11.6874 5.2388 11.7683 5.57813C9.93907 5.49237 8.1479 5.02574 6.50937 4.20809C4.87083 3.39043 3.42101 2.23976 2.25266 0.829688C1.84277 1.52068 1.626 2.30908 1.625 3.1125C1.625 4.6875 2.44672 6.07969 3.6875 6.89531C2.95237 6.87787 2.23231 6.6833 1.58844 6.32813V6.38438C1.58844 8.5875 3.18219 10.4203 5.29156 10.8375C4.8949 10.9432 4.48614 10.9968 4.07562 10.9969C3.78433 10.9974 3.4937 10.9691 3.20797 10.9125C3.79437 12.7172 5.50109 14.0297 7.52281 14.0672C5.88002 15.3332 3.8631 16.0175 1.78906 16.0125C1.42091 16.012 1.05311 15.99 0.6875 15.9469C2.79743 17.2942 5.25005 18.0068 7.75344 18C16.2547 18 20.8991 11.0766 20.8991 5.07188C20.8991 4.875 20.8939 4.67813 20.8845 4.48594C21.786 3.84472 22.5658 3.04786 23.1875 2.13281V2.13281Z" fill="white"/>
</svg>
